{"extensionsUsed" : ["KHR_materials_unlit"], "accessors" : [{"bufferView" : 0, "byteOffset" : 0, "componentType" : 5123, "count" : 19260, "type" : "SCALAR", "max" : [16932], "min" : [0]}, {"bufferView" : 1, "byteOffset" : 0, "componentType" : 5126, "count" : 16933, "type" : "VEC3", "max" : [9.364867210388184, 61.64287185668945, 67.91288757324219], "min" : [-6.656649112701416, 54.542030334472656, 59.1845588684082], "name" : "POSITION"}, {"bufferView" : 1, "byteOffset" : 12, "componentType" : 5126, "count" : 16933, "type" : "VEC3", "max" : [0.9995949864387512, 0.9999188184738159, 0.9999950528144836], "min" : [-0.999904215335846, -0.9998418092727661, -0.9999908208847046], "name" : "NORMAL"}, {"bufferView" : 1, "byteOffset" : 24, "componentType" : 5126, "count" : 16933, "type" : "VEC2", "max" : [0.999729335308075, 0.9987791776657104], "min" : [0.000244140625, 0.0003004266181960702], "name" : "TEXCOORD_0"}], "asset" : {"generator" : "Aspose.3D 23.7.0", "version" : "2.0"}, "buffers" : [{"uri" : "data:application/octet-stream;base64,", "byteLength" : 654848}], "bufferViews" : [{"buffer" : 0, "byteOffset" : 0, "byteLength" : 38520, "target" : 34963}, {"buffer" : 0, "byteOffset" : 38524, "byteLength" : 616320, "byteStride" : 32, "target" : 34962}], "images" : [{"uri" : "data:image/jpeg;base64,"}], "materials" : [{"name" : "tex_u1_v1", "extensions" : {"KHR_materials_unlit" : {}}, "pbrMetallicRoughness" : {"baseColorFactor" : [1, 1, 1, 1], "baseColorTexture" : {"index" : 0, "texCoord" : 0}, "metallicFactor" : 0, "roughnessFactor" : 1}, "emissiveFactor" : [0, 0, 0], "alphaMode" : "OPAQUE", "doubleSided" : true}], "meshes" : [{"primitives" : [{"attributes" : {"POSITION" : 1, "NORMAL" : 2, "TEXCOORD_0" : 3}, "indices" : 0, "material" : 0, "mode" : 4}]}], "nodes" : [{"mesh" : 0, "name" : "Object_2"}, {"children" : [0], "name" : "model.obj.cleaner.materialmerger.gles"}, {"children" : [1], "matrix" : [0.016813592985272408, 0, 0, 0, 0, 3.7333676117850895E-18, -0.016813592985272408, 0, 0, 0.016813592985272408, 3.7333676117850895E-18, 0, 0, 0, 0, 1], "name" : "Sketchfab_model"}], "samplers" : [{"magFilter" : 9729, "minFilter" : 9987, "wrapS" : 10497, "wrapT" : 10497}], "scene" : 0, "scenes" : [{"nodes" : [2]}], "textures" : [{"sampler" : 0, "source" : 0, "name" : ""}]}